<?xml version="1.0" encoding="UTF-8" standalone="no"?>
<!DOCTYPE svg PUBLIC "-//W3C//DTD SVG 1.1//EN" "http://www.w3.org/Graphics/SVG/1.1/DTD/svg11.dtd">
<!-- Created with Vectornator (http://vectornator.io/) -->
<svg height="100%" stroke-miterlimit="10" style="fill-rule:nonzero;clip-rule:evenodd;stroke-linecap:round;stroke-linejoin:round;" version="1.1" viewBox="0 0 1024 1024" width="100%" xml:space="preserve" xmlns="http://www.w3.org/2000/svg" xmlns:vectornator="http://vectornator.io" xmlns:xlink="http://www.w3.org/1999/xlink">
<defs/>
<g id="Layer-1" vectornator:layerName="Layer 1">
<path d="M400.315 771.246C383.844 694.968 369.737 597.095 369.737 479.037C369.737 251.986 476.489 116.025 514.992 74.3701C553.514 115.839 660.163 251.198 660.163 479.037C660.163 596.991 646.077 694.781 629.564 771.246C643.629 771.184 657.611 775.997 669.062 785.332C686.467 706.129 701.652 603.442 701.652 479.037C701.652 183.674 535.653 35.5568 528.579 29.3957C520.759 22.5914 509.121 22.5914 501.321 29.3957C494.247 35.5569 328.248 183.674 328.248 479.037C328.248 603.318 343.392 705.9 360.879 785.29C372.289 775.997 386.25 771.184 400.315 771.246Z" fill="#ff0000" fill-rule="nonzero" opacity="1" stroke="#ff0000" stroke-linecap="round" stroke-linejoin="round" stroke-width="5"/>
<path d="M515.157 812.59C521.422 812.59 528.538 811.885 535.902 810.557L535.902 86.5265C535.902 75.0547 526.629 65.7819 515.157 65.7819C503.686 65.7819 494.413 75.0547 494.413 86.5265L494.413 810.557C501.777 811.864 508.893 812.59 515.157 812.59ZM452.923 592.489L452.923 651.197L371.604 732.516C368.7 716.335 366.003 699.532 363.514 681.899L452.923 592.489ZM679.04 425.08L577.392 526.729L577.392 468.021L673.232 372.181C675.721 389.191 677.796 406.824 679.04 425.08ZM452.923 447.277L452.923 505.984L354.594 604.106C352.934 586.473 351.689 568.218 350.86 549.34L452.923 447.277ZM658.296 300.612L577.391 381.516L577.391 322.808L644.397 255.803C649.583 270.117 654.147 285.053 658.296 300.612Z" fill="#ff0000" fill-rule="nonzero" opacity="1" stroke="#ff0000" stroke-linecap="round" stroke-linejoin="round" stroke-width="5"/>
<path d="M629.046 957.803C629.046 957.803 587.411 999.292 514.95 999.292C442.489 999.292 400.854 957.803 400.854 957.803M857.237 957.803C857.237 957.803 815.603 999.292 743.142 999.292C670.68 999.292 629.046 957.803 629.046 957.803M971.333 999.292C898.872 999.292 857.237 957.803 857.237 957.803M400.854 957.803C400.854 957.803 359.22 999.292 286.759 999.292C214.297 999.292 172.663 957.803 172.663 957.803M172.663 957.803C172.663 957.803 131.028 999.292 58.567 999.292M629.046 833.335C629.046 833.335 587.411 874.824 514.95 874.824C442.489 874.824 400.854 833.335 400.854 833.335M857.237 833.335C857.237 833.335 815.603 874.824 743.142 874.824C670.68 874.824 629.046 833.335 629.046 833.335M971.333 874.824C898.872 874.824 857.237 833.335 857.237 833.335M400.854 833.335C400.854 833.335 359.22 874.824 286.759 874.824C214.297 874.824 172.663 833.335 172.663 833.335M172.663 833.335C172.663 833.335 131.028 874.824 58.567 874.824" fill="none" opacity="1" stroke="#ff0000" stroke-linecap="round" stroke-linejoin="round" stroke-width="40"/>
</g>
</svg>
