<?xml version="1.0" encoding="UTF-8" standalone="no"?>
<!DOCTYPE svg PUBLIC "-//W3C//DTD SVG 1.1//EN" "http://www.w3.org/Graphics/SVG/1.1/DTD/svg11.dtd">
<!-- Created with Vectornator (http://vectornator.io/) -->
<svg height="100%" stroke-miterlimit="10" style="fill-rule:nonzero;clip-rule:evenodd;stroke-linecap:round;stroke-linejoin:round;" version="1.1" viewBox="0 0 1024 1024" width="100%" xml:space="preserve" xmlns="http://www.w3.org/2000/svg" xmlns:vectornator="http://vectornator.io" xmlns:xlink="http://www.w3.org/1999/xlink">
<defs/>
<g id="Layer-1" vectornator:layerName="Layer 1">
<path d="M273.285 12C128.989 12 12 128.989 12 273.285L12 750.715C12 895.011 128.989 1012 273.285 1012L750.715 1012C895.011 1012 1012 895.011 1012 750.715L1012 273.285C1012 128.989 895.011 12 750.715 12L273.285 12ZM364.257 150.889C374.352 150.889 383.284 155.538 389.292 162.694L389.431 162.625L467.694 252.66L626.896 298.632L860.438 486.132L860.368 486.201C868.066 492.193 873.111 501.479 873.111 512C873.111 530.138 858.436 544.813 840.299 544.813C832.354 544.812 825.145 541.903 819.465 537.208L819.431 537.278L662.938 417.59L557.139 513.528L646.028 583.806L646.062 583.944C654.302 589.903 659.743 599.524 659.743 610.472C659.743 613.164 659.325 615.72 658.701 618.215L658.771 618.389L626.34 755.299C623.714 775.422 606.7 791.028 585.854 791.028C563.186 791.028 544.812 772.689 544.812 750.021C544.812 746.475 545.434 743.079 546.271 739.813L546.062 739.778L575.333 623.042L479.188 554.674L479.188 617.278C479.188 635.497 469.093 652.249 453.007 660.785L310.993 736.201L310.924 736.097C304.867 739.626 297.92 741.792 290.403 741.792C267.735 741.792 249.361 723.418 249.361 700.75C249.361 684.484 258.919 670.576 272.625 663.944L272.486 663.701L397.104 602.278L397.104 479.188C397.104 459.359 406.067 441.775 419.986 429.743L420.368 428.91L522.938 339.639L424.882 306.41L338.354 204.153L338.597 203.944C334.198 198.364 331.444 191.367 331.444 183.701C331.444 165.564 346.119 150.889 364.257 150.889ZM733.597 150.889C774.391 150.889 807.451 183.949 807.451 224.743C807.451 265.537 774.391 298.632 733.597 298.632C692.803 298.632 659.743 265.537 659.743 224.743C659.743 183.949 692.803 150.889 733.597 150.889ZM175.507 725.368C177.148 725.368 178.721 725.559 180.264 725.854L180.299 725.75L859.361 840.472L859.326 840.819C867.09 842.132 873.111 848.563 873.111 856.688C873.111 865.748 865.748 873.111 856.688 873.111C856.671 873.111 856.635 873.111 856.618 873.111C503.419 871.667 203.972 784.182 170.75 774.153C159.441 771.921 150.889 761.987 150.889 750.021C150.889 736.43 161.916 725.368 175.507 725.368ZM205.299 788.181L300.229 813.285C251.496 854.402 167.312 856.688 167.312 856.688L205.299 788.181Z" fill="#4479fc" fill-rule="nonzero" opacity="1" stroke="none"/>
</g>
</svg>
