<?xml version="1.0" encoding="UTF-8" standalone="no"?>
<!DOCTYPE svg PUBLIC "-//W3C//DTD SVG 1.1//EN" "http://www.w3.org/Graphics/SVG/1.1/DTD/svg11.dtd">
<!-- Created with Vectornator (http://vectornator.io/) -->
<svg height="100%" stroke-miterlimit="10" style="fill-rule:nonzero;clip-rule:evenodd;stroke-linecap:round;stroke-linejoin:round;" version="1.1" viewBox="0 0 1024 1024" width="100%" xml:space="preserve" xmlns="http://www.w3.org/2000/svg" xmlns:vectornator="http://vectornator.io" xmlns:xlink="http://www.w3.org/1999/xlink">
<defs/>
<g id="Layer-1" vectornator:layerName="Layer 1">
<path d="M929.161 906.923L929.2 906.509L113.607 768.724L113.568 768.862C111.715 768.507 109.822 768.29 107.851 768.29C91.5269 768.29 78.2787 781.538 78.2787 797.862C78.2787 812.234 88.55 824.181 102.133 826.862C142.036 838.908 501.709 943.986 925.928 945.721L925.928 945.702C925.948 945.702 925.987 945.721 926.007 945.721C936.889 945.721 945.721 936.889 945.721 926.007C945.721 916.248 938.486 908.5 929.161 906.923ZM778.147 78.2787C729.151 78.2787 689.431 117.998 689.431 166.994C689.431 215.991 729.151 255.71 778.147 255.71C827.143 255.71 866.863 215.991 866.863 166.994C866.863 117.998 827.143 78.2787 778.147 78.2787ZM143.613 843.698L97.9933 926.007C97.9933 926.007 199.129 923.247 257.662 873.862M930.423 481.028L930.502 480.93L650.002 255.71L458.771 200.509L364.771 92.3747L364.633 92.4732C357.418 83.8777 346.693 78.2787 334.569 78.2787C312.784 78.2787 295.139 95.9233 295.139 117.708C295.139 126.915 298.432 135.293 303.715 141.996L303.419 142.233L407.355 265.055L525.15 304.997L401.953 412.205L401.5 413.19C384.782 427.641 373.998 448.756 373.998 472.571L373.998 620.43L224.324 694.202L224.482 694.498C208.021 702.463 196.566 719.181 196.566 738.718C196.566 765.944 218.627 788.004 245.853 788.004C254.882 788.004 263.221 785.402 270.496 781.163L270.555 781.262L441.165 690.693C460.486 680.442 472.571 660.333 472.571 638.449L472.571 563.258L588.079 645.389L552.928 785.56L553.144 785.619C552.139 789.542 551.429 793.603 551.429 797.862C551.429 825.088 573.49 847.148 600.716 847.148C625.753 847.148 646.197 828.4 649.352 804.23L688.268 639.79L688.189 639.593C688.939 636.596 689.431 633.521 689.431 630.288C689.431 617.138 682.926 605.566 673.029 598.409L672.97 598.251L566.195 513.853L693.276 398.621L881.235 542.341L881.294 542.262C888.115 547.9 896.75 551.429 906.292 551.429C928.077 551.429 945.721 533.785 945.721 512C945.721 499.363 939.669 488.224 930.423 481.028Z" fill="none" opacity="1" stroke="#000000" stroke-linecap="round" stroke-linejoin="round" stroke-width="25"/>
</g>
</svg>
